<?xml version="1.0" encoding="utf-8"?>
<svg xmlns="http://www.w3.org/2000/svg"
	xmlns:xlink="http://www.w3.org/1999/xlink"
	width="76px" height="66px" viewBox="0 0 76 66">
<path fillRule="evenodd" d="M 74.67 46.89C 73.93 46.89 73.33 46.29 73.33 45.56 73.33 45.56 73.33 6.15 73.33 6.15 73.33 4.22 71.75 2.65 69.81 2.65 69.81 2.65 6.19 2.65 6.19 2.65 4.25 2.65 2.67 4.22 2.67 6.15 2.67 6.15 2.67 12.12 2.67 12.12 2.67 12.85 2.07 13.45 1.33 13.45 0.6 13.45-0 12.85-0 12.12-0 12.12-0 6.15-0 6.15-0 2.76 2.78-0 6.19-0 6.19-0 69.81-0 69.81-0 73.22-0 76 2.76 76 6.15 76 6.15 76 45.56 76 45.56 76 46.29 75.4 46.89 74.67 46.89ZM 70.16 9.27C 70.16 9.27 5.84 9.27 5.84 9.27 5.1 9.27 4.51 8.68 4.51 7.95 4.51 7.21 5.1 6.62 5.84 6.62 5.84 6.62 70.16 6.62 70.16 6.62 70.9 6.62 71.49 7.21 71.49 7.95 71.49 8.68 70.9 9.27 70.16 9.27ZM 70.16 50.01C 70.16 50.01 5.84 50.01 5.84 50.01 5.1 50.01 4.51 49.41 4.51 48.68 4.51 47.95 5.1 47.35 5.84 47.35 5.84 47.35 70.16 47.35 70.16 47.35 70.9 47.35 71.49 47.95 71.49 48.68 71.49 49.41 70.9 50.01 70.16 50.01ZM 1.33 15.92C 2.07 15.92 2.67 16.52 2.67 17.25 2.67 17.25 2.67 50.48 2.67 50.48 2.67 52.4 4.25 53.97 6.19 53.97 6.19 53.97 69.81 53.97 69.81 53.97 71.75 53.97 73.33 52.4 73.33 50.48 73.33 49.74 73.93 49.15 74.67 49.15 75.4 49.15 76 49.74 76 50.48 76 53.87 73.22 56.63 69.81 56.63 69.81 56.63 44.3 56.63 44.3 56.63 44.3 56.63 45.93 63.35 45.93 63.35 45.93 63.35 52.24 63.35 52.24 63.35 52.97 63.35 53.57 63.94 53.57 64.67 53.57 65.4 52.97 66 52.24 66 52.24 66 44.87 66 44.87 66 44.87 66 31.13 66 31.13 66 31.13 66 23.76 66 23.76 66 23.03 66 22.43 65.4 22.43 64.67 22.43 63.94 23.03 63.35 23.76 63.35 23.76 63.35 30.07 63.35 30.07 63.35 30.07 63.35 31.69 56.63 31.69 56.63 31.69 56.63 6.19 56.63 6.19 56.63 2.78 56.63-0 53.87-0 50.48-0 50.48-0 17.25-0 17.25-0 16.52 0.6 15.92 1.33 15.92ZM 43.18 63.34C 43.18 63.34 41.56 56.63 41.56 56.63 41.56 56.63 34.44 56.63 34.44 56.63 34.44 56.63 32.82 63.34 32.82 63.34 32.82 63.34 43.18 63.34 43.18 63.34Z" fill="rgb(23,29,129)"/></svg>