<?xml version="1.0" encoding="utf-8"?>
<svg xmlns="http://www.w3.org/2000/svg"
	xmlns:xlink="http://www.w3.org/1999/xlink"
	width="62px" height="54px" viewBox="0 0 62 54">
<path fillRule="evenodd" d="M 60.91 38.36C 60.31 38.36 59.82 37.88 59.82 37.28 59.82 37.28 59.82 5.03 59.82 5.03 59.82 3.45 58.53 2.17 56.95 2.17 56.95 2.17 5.05 2.17 5.05 2.17 3.46 2.17 2.18 3.45 2.18 5.03 2.18 5.03 2.18 9.92 2.18 9.92 2.18 10.52 1.69 11 1.09 11 0.49 11-0 10.52-0 9.92-0 9.92-0 5.03-0 5.03-0 2.26 2.26-0 5.05-0 5.05-0 56.95-0 56.95-0 59.74-0 62 2.26 62 5.03 62 5.03 62 37.28 62 37.28 62 37.88 61.51 38.36 60.91 38.36ZM 57.23 40.92C 57.23 40.92 4.77 40.92 4.77 40.92 4.16 40.92 3.68 40.43 3.68 39.83 3.68 39.23 4.16 38.75 4.77 38.75 4.77 38.75 57.23 38.75 57.23 38.75 57.84 38.75 58.32 39.23 58.32 39.83 58.32 40.43 57.84 40.92 57.23 40.92ZM 36.43 24.56C 36.83 24.29 37.38 24.4 37.64 24.81 37.91 25.22 37.8 25.77 37.39 26.03 37.39 26.03 36.03 26.94 36.03 26.94 35.88 27.04 35.71 27.08 35.55 27.08 35.26 27.08 34.98 26.94 34.81 26.68 34.55 26.28 34.66 25.73 35.07 25.46 35.07 25.46 36.43 24.56 36.43 24.56ZM 34.81 16.68C 35.08 16.28 35.62 16.17 36.03 16.43 36.03 16.43 42.85 20.95 42.85 20.95 43.09 21.11 43.24 21.39 43.24 21.68 43.24 21.98 43.09 22.26 42.85 22.42 42.85 22.42 39.45 24.67 39.45 24.67 39.3 24.77 39.13 24.82 38.97 24.82 38.68 24.82 38.4 24.68 38.24 24.42 37.97 24.01 38.08 23.47 38.49 23.2 38.49 23.2 40.77 21.68 40.77 21.68 40.77 21.68 35.07 17.91 35.07 17.91 34.66 17.64 34.55 17.09 34.81 16.68ZM 33.33 13.13C 33.8 13.26 34.07 13.74 33.94 14.21 33.94 14.21 29.74 29.62 29.74 29.62 29.64 30.01 29.28 30.27 28.9 30.27 28.82 30.27 28.74 30.26 28.67 30.24 28.2 30.11 27.93 29.63 28.05 29.16 28.05 29.16 32.26 13.75 32.26 13.75 32.38 13.28 32.87 13 33.33 13.13ZM 3.68 6.5C 3.68 5.9 4.16 5.41 4.77 5.41 4.77 5.41 57.23 5.41 57.23 5.41 57.84 5.41 58.32 5.9 58.32 6.5 58.32 7.1 57.84 7.59 57.23 7.59 57.23 7.59 4.77 7.59 4.77 7.59 4.16 7.59 3.68 7.1 3.68 6.5ZM 27.19 26.68C 27.02 26.94 26.74 27.08 26.45 27.08 26.29 27.08 26.12 27.04 25.97 26.94 25.97 26.94 19.15 22.42 19.15 22.42 18.91 22.26 18.76 21.98 18.76 21.68 18.76 21.39 18.91 21.11 19.15 20.95 19.15 20.95 25.97 16.43 25.97 16.43 26.38 16.16 26.92 16.28 27.19 16.68 27.45 17.09 27.34 17.64 26.93 17.91 26.93 17.91 21.23 21.68 21.23 21.68 21.23 21.68 26.93 25.46 26.93 25.46 27.34 25.73 27.45 26.28 27.19 26.68ZM 1.09 13.03C 1.69 13.03 2.18 13.51 2.18 14.11 2.18 14.11 2.18 41.3 2.18 41.3 2.18 42.88 3.46 44.16 5.05 44.16 5.05 44.16 56.95 44.16 56.95 44.16 58.53 44.16 59.82 42.88 59.82 41.3 59.82 40.7 60.31 40.21 60.91 40.21 61.51 40.21 62 40.7 62 41.3 62 44.07 59.74 46.33 56.95 46.33 56.95 46.33 36.14 46.33 36.14 46.33 36.14 46.33 37.47 51.83 37.47 51.83 37.47 51.83 42.61 51.83 42.61 51.83 43.21 51.83 43.7 52.31 43.7 52.91 43.7 53.51 43.21 54 42.61 54 42.61 54 36.61 54 36.61 54 36.61 54 25.39 54 25.39 54 25.39 54 19.39 54 19.39 54 18.78 54 18.3 53.51 18.3 52.91 18.3 52.31 18.79 51.83 19.39 51.83 19.39 51.83 24.53 51.83 24.53 51.83 24.53 51.83 25.86 46.33 25.86 46.33 25.86 46.33 5.05 46.33 5.05 46.33 2.26 46.33-0 44.07-0 41.3-0 41.3-0 14.11-0 14.11-0 13.51 0.49 13.03 1.09 13.03ZM 35.23 51.83C 35.23 51.83 33.9 46.33 33.9 46.33 33.9 46.33 28.1 46.33 28.1 46.33 28.1 46.33 26.77 51.83 26.77 51.83 26.77 51.83 35.23 51.83 35.23 51.83Z" fill="rgb(255,255,255)"/></svg>