<?xml version="1.0" encoding="utf-8"?>
<svg xmlns="http://www.w3.org/2000/svg"
	xmlns:xlink="http://www.w3.org/1999/xlink"
	width="45px" height="55px" viewBox="0 0 45 55">
<path fillRule="evenodd" d="M 22.5 50.76C 10.09 50.76-0 40.64-0 28.21-0 27.72 0.39 27.32 0.88 27.32 1.37 27.32 1.76 27.72 1.76 28.21 1.76 39.67 11.07 48.99 22.5 48.99 33.93 48.99 43.24 39.67 43.24 28.21 43.24 27.72 43.63 27.32 44.12 27.32 44.61 27.32 45 27.72 45 28.21 45 40.64 34.91 50.76 22.5 50.76ZM 23.29 48.39C 23.14 48.69 22.83 48.88 22.5 48.88 22.17 48.88 21.86 48.69 21.71 48.39 21.71 48.39 14.19 33.31 14.19 33.31 14.11 33.15 14.08 32.96 14.11 32.78 14.11 32.78 16.46 17.71 16.46 17.71 16.47 17.62 16.5 17.54 16.54 17.46 16.54 17.46 15.31 0.95 15.31 0.95 15.29 0.7 15.37 0.46 15.54 0.28 15.71 0.1 15.94-0 16.19-0 16.19-0 29.15-0 29.15-0 29.4-0 29.64 0.1 29.8 0.29 29.97 0.47 30.05 0.71 30.03 0.96 30.03 0.96 28.56 17.81 28.56 17.81 28.56 17.81 30.89 32.78 30.89 32.78 30.92 32.96 30.89 33.15 30.81 33.31 30.81 33.31 23.29 48.39 23.29 48.39ZM 22.5 31.09C 23.83 31.09 24.91 30.01 24.91 28.68 24.91 27.35 23.83 26.26 22.5 26.26 21.17 26.26 20.09 27.35 20.09 28.68 20.09 30.01 21.17 31.09 22.5 31.09ZM 17.14 1.77C 17.14 1.77 18.27 16.96 18.27 16.96 18.27 16.96 26.86 16.96 26.86 16.96 26.86 16.96 28.19 1.77 28.19 1.77 28.19 1.77 17.14 1.77 17.14 1.77ZM 26.92 18.73C 26.92 18.73 18.08 18.73 18.08 18.73 18.08 18.73 15.89 32.77 15.89 32.77 15.89 32.77 21.62 44.25 21.62 44.25 21.62 44.25 21.62 32.76 21.62 32.76 19.74 32.36 18.33 30.68 18.33 28.68 18.33 26.37 20.2 24.5 22.5 24.5 24.8 24.5 26.67 26.37 26.67 28.68 26.67 30.68 25.26 32.36 23.38 32.76 23.38 32.76 23.38 44.25 23.38 44.25 23.38 44.25 29.11 32.77 29.11 32.77 29.11 32.77 26.92 18.73 26.92 18.73ZM 5.11 48.52C 5.11 48.52 9.81 48.52 9.81 48.52 10.3 48.52 10.69 48.92 10.69 49.4 10.69 49.4 10.69 50.88 10.69 50.88 10.69 50.88 34.31 50.88 34.31 50.88 34.31 50.88 34.31 49.4 34.31 49.4 34.31 48.92 34.7 48.52 35.19 48.52 35.19 48.52 39.89 48.52 39.89 48.52 40.38 48.52 40.77 48.92 40.77 49.4 40.77 49.4 40.77 54.12 40.77 54.12 40.77 54.6 40.38 55 39.89 55 39.89 55 35.19 55 35.19 55 34.7 55 34.31 54.6 34.31 54.12 34.31 54.12 34.31 52.64 34.31 52.64 34.31 52.64 10.69 52.64 10.69 52.64 10.69 52.64 10.69 54.12 10.69 54.12 10.69 54.6 10.3 55 9.81 55 9.81 55 5.11 55 5.11 55 4.62 55 4.23 54.6 4.23 54.12 4.23 54.12 4.23 49.4 4.23 49.4 4.23 48.92 4.62 48.52 5.11 48.52ZM 36.07 53.23C 36.07 53.23 39.01 53.23 39.01 53.23 39.01 53.23 39.01 50.29 39.01 50.29 39.01 50.29 36.07 50.29 36.07 50.29 36.07 50.29 36.07 53.23 36.07 53.23ZM 5.99 53.23C 5.99 53.23 8.93 53.23 8.93 53.23 8.93 53.23 8.93 50.29 8.93 50.29 8.93 50.29 5.99 50.29 5.99 50.29 5.99 50.29 5.99 53.23 5.99 53.23Z" fill="rgb(255,255,255)"/></svg>