<?xml version="1.0" encoding="utf-8"?>
<svg xmlns="http://www.w3.org/2000/svg"
	xmlns:xlink="http://www.w3.org/1999/xlink"
	width="54px" height="54px" viewBox="0 0 54 54">
<path fillRule="evenodd" d="M 53.15 54C 53.15 54 27 54 27 54 27 54 0.85 54 0.85 54 0.38 54-0 53.61-0 53.14-0 53.14-0 11.87-0 11.87-0 11.87-0 0.86-0 0.86-0 0.38 0.38-0 0.85-0 0.85-0 27-0 27-0 27-0 53.15-0 53.15-0 53.62-0 54 0.38 54 0.86 54 0.86 54 11.87 54 11.87 54 11.87 54 53.14 54 53.14 54 53.61 53.62 54 53.15 54ZM 52.31 1.72C 52.31 1.72 27 1.72 27 1.72 27 1.72 1.69 1.72 1.69 1.72 1.69 1.72 1.69 11.01 1.69 11.01 1.69 11.01 27 11.01 27 11.01 27 11.01 52.31 11.01 52.31 11.01 52.31 11.01 52.31 1.72 52.31 1.72ZM 52.31 12.72C 52.31 12.72 27 12.72 27 12.72 27 12.72 1.69 12.72 1.69 12.72 1.69 12.72 1.69 52.28 1.69 52.28 1.69 52.28 27 52.28 27 52.28 27 52.28 52.31 52.28 52.31 52.28 52.31 52.28 52.31 12.72 52.31 12.72ZM 26.95 47.88C 26.94 47.89 26.92 47.91 26.9 47.92 26.9 47.92 26.88 47.93 26.87 47.94 26.86 47.94 26.85 47.95 26.83 47.96 26.82 47.97 26.81 47.97 26.79 47.98 26.78 47.98 26.77 47.99 26.76 48 26.74 48 26.73 48.01 26.71 48.01 26.7 48.02 26.69 48.02 26.68 48.02 26.66 48.03 26.64 48.04 26.62 48.04 26.61 48.04 26.61 48.04 26.6 48.04 26.6 48.04 26.6 48.05 26.6 48.05 26.6 48.05 26.6 48.05 26.6 48.05 26.6 48.05 20.22 49.34 20.22 49.34 20.22 49.34 20.22 49.34 20.22 49.34 20.22 49.34 20.22 49.34 20.22 49.34 20.22 49.34 16.52 50.09 16.52 50.09 16.37 50.24 16.17 50.33 15.94 50.33 15.94 50.33 15.28 50.33 15.28 50.33 15.28 50.33 15.28 50.33 15.28 50.33 15.28 50.33 15.28 50.33 15.28 50.33 15.28 50.33 15.27 50.33 15.27 50.33 15.27 50.33 15.27 50.33 15.27 50.33 15.27 50.33 7.61 50.33 7.61 50.33 7.14 50.33 6.76 49.95 6.76 49.47 6.76 49 7.14 48.61 7.61 48.61 7.61 48.61 14.58 48.61 14.58 48.61 14.58 48.61 16.68 37.96 16.68 37.96 16.68 37.96 16.68 37.96 16.68 37.95 16.68 37.95 16.68 37.95 16.68 37.95 16.68 37.95 16.68 37.94 16.68 37.94 16.69 37.92 16.69 37.89 16.7 37.87 16.7 37.86 16.7 37.85 16.71 37.84 16.71 37.83 16.72 37.81 16.73 37.79 16.73 37.78 16.74 37.77 16.74 37.76 16.75 37.74 16.75 37.73 16.76 37.72 16.77 37.7 16.78 37.69 16.78 37.68 16.79 37.67 16.8 37.65 16.8 37.64 16.81 37.63 16.83 37.61 16.84 37.6 16.84 37.59 16.85 37.58 16.85 37.58 16.87 37.56 16.89 37.54 16.9 37.52 16.9 37.52 16.91 37.52 16.91 37.51 16.91 37.51 16.91 37.51 16.91 37.51 16.91 37.51 16.91 37.51 16.91 37.51 16.91 37.51 18.74 35.66 18.74 35.66 18.74 35.66 7.61 35.66 7.61 35.66 7.14 35.66 6.76 35.27 6.76 34.8 6.76 34.32 7.14 33.94 7.61 33.94 7.61 33.94 20.43 33.94 20.43 33.94 20.43 33.94 26.4 27.86 26.4 27.86 26.4 27.86 33.17 20.98 33.17 20.98 33.17 20.98 27 20.98 27 20.98 27 20.98 7.61 20.98 7.61 20.98 7.14 20.98 6.76 20.6 6.76 20.12 6.76 19.65 7.14 19.26 7.61 19.26 7.61 19.26 27 19.26 27 19.26 27 19.26 34.86 19.26 34.86 19.26 34.86 19.26 40.55 13.47 40.55 13.47 40.88 13.14 41.41 13.14 41.74 13.47 41.74 13.47 50.67 22.55 50.67 22.55 51 22.89 51 23.43 50.67 23.77 50.67 23.77 44.3 30.25 44.3 30.25 44.3 30.25 39.23 35.4 39.23 35.4 39.23 35.4 27.6 47.24 27.6 47.24 27.6 47.24 27.04 47.8 27.04 47.8 27.04 47.81 27.04 47.81 27.03 47.81 27.03 47.81 27.03 47.81 27.03 47.81 27.03 47.81 27.03 47.81 27.02 47.82 27.01 47.83 26.99 47.85 26.97 47.87 26.96 47.87 26.96 47.88 26.95 47.88ZM 16.75 46.35C 16.75 46.35 16.35 48.37 16.35 48.37 16.35 48.37 18.34 47.97 18.34 47.97 18.34 47.97 16.75 46.35 16.75 46.35ZM 17.15 44.32C 17.15 44.32 20.34 47.56 20.34 47.56 20.34 47.56 24.72 46.67 24.72 46.67 24.72 46.67 22.97 44.89 22.97 44.89 22.97 44.89 19.78 41.65 19.78 41.65 19.78 41.65 18.03 39.87 18.03 39.87 18.03 39.87 17.15 44.32 17.15 44.32ZM 26.4 40.18C 26.4 40.18 32.3 34.19 32.3 34.19 32.3 34.19 39.63 26.73 39.63 26.73 39.63 26.73 37.64 24.7 37.64 24.7 37.64 24.7 21.57 41.04 21.57 41.04 21.57 41.04 23.57 43.07 23.57 43.07 23.57 43.07 26.4 40.18 26.4 40.18ZM 34.77 21.78C 34.77 21.78 27.6 29.08 27.6 29.08 27.6 29.08 21.38 35.4 21.38 35.4 21.38 35.4 21.38 35.4 21.38 35.4 21.38 35.4 18.7 38.12 18.7 38.12 18.7 38.12 20.38 39.82 20.38 39.82 20.38 39.82 36.44 23.48 36.44 23.48 36.44 23.48 34.77 21.78 34.77 21.78ZM 48.88 23.16C 48.88 23.16 41.15 15.3 41.15 15.3 41.15 15.3 35.97 20.57 35.97 20.57 35.97 20.57 38.24 22.88 38.24 22.88 38.24 22.88 41.43 26.12 41.43 26.12 41.43 26.12 43.7 28.43 43.7 28.43 43.7 28.43 48.88 23.16 48.88 23.16ZM 38.04 34.19C 38.04 34.19 42.5 29.65 42.5 29.65 42.5 29.65 40.83 27.94 40.83 27.94 40.83 27.94 33.49 35.4 33.49 35.4 33.49 35.4 27.6 41.4 27.6 41.4 27.6 41.4 24.76 44.28 24.76 44.28 24.76 44.28 26.44 45.98 26.44 45.98 26.44 45.98 38.04 34.19 38.04 34.19ZM 38.95 21.21C 38.73 21.21 38.52 21.13 38.35 20.96 38.02 20.62 38.02 20.08 38.35 19.74 38.35 19.74 40.38 17.68 40.38 17.68 40.71 17.34 41.25 17.34 41.58 17.68 41.91 18.01 41.91 18.56 41.58 18.89 41.58 18.89 39.55 20.96 39.55 20.96 39.38 21.13 39.17 21.21 38.95 21.21ZM 26.72 9.77C 25.3 9.26 24.35 7.89 24.35 6.36 24.35 4.84 25.3 3.47 26.72 2.96 26.72 2.96 26.72 2.96 26.72 2.96 27.1 2.82 27.5 2.75 27.9 2.75 29.86 2.75 31.45 4.37 31.45 6.36 31.45 8.35 29.86 9.97 27.9 9.97 27.5 9.97 27.1 9.9 26.72 9.77 26.72 9.77 26.72 9.77 26.72 9.77ZM 27.28 8.15C 27.28 8.15 27.28 8.15 27.28 8.15 27.48 8.22 27.69 8.25 27.9 8.25 28.93 8.25 29.76 7.41 29.76 6.36 29.76 5.32 28.93 4.47 27.9 4.47 27.69 4.47 27.48 4.51 27.28 4.58 27.28 4.58 27.28 4.58 27.28 4.58 26.54 4.85 26.04 5.56 26.04 6.36 26.04 7.16 26.54 7.88 27.28 8.15ZM 35.12 3.67C 35.12 3.67 45.04 3.67 45.04 3.67 45.5 3.67 45.88 4.05 45.88 4.53 45.88 5 45.5 5.39 45.04 5.39 45.04 5.39 35.12 5.39 35.12 5.39 34.65 5.39 34.27 5 34.27 4.53 34.27 4.05 34.65 3.67 35.12 3.67ZM 47.74 3.67C 47.74 3.67 49.55 3.67 49.55 3.67 50.01 3.67 50.39 4.05 50.39 4.53 50.39 5 50.01 5.39 49.55 5.39 49.55 5.39 47.74 5.39 47.74 5.39 47.28 5.39 46.9 5 46.9 4.53 46.9 4.05 47.28 3.67 47.74 3.67ZM 17.98 9.97C 16.02 9.97 14.43 8.35 14.43 6.36 14.43 4.37 16.02 2.75 17.98 2.75 19.94 2.75 21.53 4.37 21.53 6.36 21.53 8.35 19.94 9.97 17.98 9.97ZM 17.98 4.47C 16.96 4.47 16.12 5.32 16.12 6.36 16.12 7.41 16.96 8.25 17.98 8.25 19.01 8.25 19.84 7.41 19.84 6.36 19.84 5.32 19.01 4.47 17.98 4.47ZM 8.06 9.97C 6.1 9.97 4.51 8.35 4.51 6.36 4.51 4.37 6.1 2.75 8.06 2.75 10.02 2.75 11.61 4.37 11.61 6.36 11.61 8.35 10.02 9.97 8.06 9.97ZM 8.06 4.47C 7.03 4.47 6.2 5.32 6.2 6.36 6.2 7.41 7.03 8.25 8.06 8.25 9.09 8.25 9.92 7.41 9.92 6.36 9.92 5.32 9.09 4.47 8.06 4.47Z" fill="rgb(255,255,255)"/></svg>