<svg xmlns="http://www.w3.org/2000/svg" xmlns:xlink="http://www.w3.org/1999/xlink" version="1.1" x="0px" y="0px" viewBox="0 0 100 125" style="enable-background:new 0 0 100 100;" xml:space="preserve"><g><path d="M77.1607285,68.8437195c-0.6091309-2.3444824-2.4437256-4.217041-4.8034668-4.9769287   c-0.2424316-1.3655396-0.9035645-2.8701782-1.6223145-4.4625244c-0.5888672-1.3032227-1.1972656-2.6503906-1.6650391-4.0952148   c-0.578125-1.7773438,0.2294922-3.7543945,1.0839844-5.8476563c0.6650391-1.6289063,1.3535156-3.3129883,1.3847656-4.9853516   c0.0507813-2.6259766-1.6044922-6.1577148-2.8125-8.7363281c-0.5371094-1.1455078-1.0009766-2.1347656-1.1464844-2.6879883   c-0.1191406-0.4545898-0.0126953-1.2250957,0.1103516-2.1171856c0.328125-2.3671875,0.8232422-5.9443359-1.5351563-10.5820313   c-2.7744179-5.4516611-11.4082069-4.3916025-14.9941444-3.6831055c-0.7685547,0.1518555-1.5507813,0.1523438-2.3232422,0.0004883   c-3.5839844-0.7099619-12.2275391-1.7695322-14.9921875,3.6821289c-2.3671856,4.6391602-1.8681622,8.2167969-1.5380859,10.5844727   c0.1240234,0.8911133,0.2314453,1.6611309,0.1123047,2.1152325c-0.1455078,0.5537109-0.6093731,1.5429688-1.1464825,2.6884766   c-1.2089844,2.5786133-2.8632813,6.1103516-2.8134766,8.7338867c0.0273438,1.6777344,0.7167969,3.3666992,1.3837891,5.0004883   c0.8525391,2.0888672,1.6582031,4.0620117,1.0849609,5.8354492c-0.4667969,1.4438477-1.0751953,2.7915039-1.6640625,4.0947266   c-0.7189331,1.5928345-1.380249,3.0979614-1.6224976,4.4633789c-2.3690186,0.7688599-4.1957397,2.6373901-4.8023071,4.9746094   c-1.2695313,4.8466797-1.0195313,10.5805664-0.5869141,14.5371094c0.0332031,0.3041992,0.2910156,0.534668,0.5966797,0.534668   h54.3007813c0.3056641,0,0.5634766-0.2304688,0.5966797-0.534668   C78.1802597,79.426239,78.4302597,73.6943054,77.1607285,68.8437195z M30.3579922,59.8988953   c0.5742188-1.2709961,1.2246094-2.7119141,1.7128887-4.2202148c0.7070313-2.1904297-0.2197247-4.4614258-1.116209-6.6577148   c-0.625-1.53125-1.2714844-3.1142578-1.2958984-4.5678711c-0.0439453-2.3461914,1.5419922-5.7314453,2.70117-8.2036133   c0.5849609-1.2480469,1.046875-2.2333984,1.2197266-2.8920898c0.1806641-0.6870117,0.0644531-1.5253887-0.0839844-2.5864239   c-0.3095703-2.21875-0.7763672-5.5712891,1.4189453-9.875c2.3945313-4.7226563,10.3710938-3.7050781,13.6904297-3.0493164   c0.9248047,0.1835938,1.8642578,0.184082,2.7890625-0.0004883c3.3164063-0.6542969,11.2890625-1.6704102,13.6904335,3.050293   c2.1884766,4.3022461,1.7246094,7.6547852,1.4169922,9.8735352c-0.1464844,1.0615234-0.2626953,1.9003887-0.0820313,2.5874004   c0.1728516,0.6582031,0.6347656,1.644043,1.2197266,2.8916016c1.1582031,2.4716797,2.7451172,5.8574219,2.7001953,8.2041016   c-0.0273438,1.4487305-0.6728516,3.0273438-1.2958984,4.5541992c-0.8994141,2.2016602-1.8291016,4.4775391-1.1152344,6.671875   c0.4882813,1.5078125,1.1386719,2.9477539,1.7128906,4.21875c0.6132813,1.359375,1.1621094,2.5732422,1.4404297,3.6513672   c-0.0068359-0.0004883-0.0126953-0.0014648-0.0185547-0.0019531c-0.2197266-0.0463867-0.4521484-0.0708008-0.671875-0.0820313   c-0.0107422-0.0004883-0.0205078-0.0009766-0.03125-0.0009766l-9.7099648-0.6586914   c-3.2509766-0.2172852-5.8466797-2.8583984-5.9111328-6.0161133c-0.0091553-0.3579712-0.0110474-0.7047119-0.0103149-1.041748   c0.0004272-0.1837158,0.0023193-0.3603516,0.0043335-0.536499c0.0009766-0.0853271,0.0016479-0.1714478,0.0027466-0.2548218   c0.0297241-0.0216064,0.0614014-0.0507813,0.0912476-0.0728149c0.333374-0.2462158,0.6725464-0.5153198,1.0168457-0.8122559   c0.0534668-0.0460815,0.1066284-0.0947876,0.1602783-0.1420898c0.3522949-0.3106689,0.7070313-0.6427002,1.062561-1.0044556   c0.0421143-0.0427856,0.0835571-0.0886841,0.1256104-0.1322021c0.3690796-0.3817749,0.7376099-0.7852783,1.1014404-1.2202759   c0.0180054-0.0214844,0.0354004-0.0447998,0.0533447-0.0664063c0.3619385-0.4358521,0.7183228-0.8990479,1.0667725-1.3861084   c0.0266724-0.0372925,0.0539551-0.0718384,0.0805664-0.109436c0.3424072-0.4842529,0.6734009-0.9974365,0.9943848-1.5297852   c0.0415039-0.0688477,0.0839844-0.1348267,0.125061-0.2044678c0.3087158-0.5233154,0.6022949-1.0719604,0.8828735-1.6390381   c0.0443726-0.0896606,0.0892944-0.1774902,0.1328735-0.2682495c0.2722778-0.5671997,0.5263062-1.1565552,0.7632446-1.7649536   c0.0394287-0.1013184,0.0784912-0.2020874,0.1168213-0.3045044c0.2310791-0.6169434,0.4413452-1.2536011,0.6289673-1.9103394   c0.013855-0.048645,0.03302-0.0926514,0.0466309-0.1415405c0.1123047,0.0317383,0.2255859,0.0556641,0.3408203,0.0712891   c0.1113281,0.015625,0.2226563,0.0234375,0.3339844,0.0234375c0.0324097,0,0.0643311-0.0071411,0.0966797-0.0084839   c0.0555458-0.0023193,0.1104774-0.0083618,0.1657143-0.0144653c0.1011963-0.0112305,0.2014771-0.0288086,0.3014526-0.0529175   c0.0546875-0.0131226,0.1089478-0.0263062,0.163147-0.0432739c0.1039429-0.0325928,0.2061768-0.074585,0.3078613-0.1210938   c0.0465698-0.0212402,0.0935669-0.0386963,0.1395264-0.0628662c0.1453247-0.076416,0.2884521-0.1636963,0.4271851-0.2686768   c0.2150879-0.1625977,0.414978-0.3564453,0.5965576-0.5756226c0.5447388-0.6575317,0.9246826-1.5432739,1.0557861-2.4990845   c0.0437012-0.3182983,0.0585327-0.6365967,0.0459595-0.9484253c-0.0376587-0.9354248-0.3217773-1.8126221-0.812561-2.4568481   c-0.4550781-0.5981445-1.0498047-0.9614258-1.7167969-1.0507813c-0.4707031-0.0634766-0.9599648,0.0170898-1.416996,0.2319336   c-0.21875,0.1035156-0.3544922,0.328125-0.34375,0.5698242c0.0070801,0.1514282,0.0062256,0.2998047,0.0070801,0.4487305   c-0.1856689-0.0172119-0.3710938-0.034729-0.5540161-0.0574951c-0.2467041-0.0307617-0.4938965-0.0602417-0.7354736-0.1004028   c-0.2821655-0.046936-0.5574951-0.104187-0.8322144-0.1629028c-0.2337646-0.0499268-0.4691772-0.0974731-0.6972656-0.1551514   c-0.2698975-0.0681763-0.5314331-0.1459351-0.7930298-0.2238159c-0.2194214-0.0653076-0.4415283-0.1275635-0.6549072-0.1989136   c-0.2572021-0.0859985-0.5042114-0.1801147-0.7521973-0.2736816c-0.2024536-0.076355-0.4091187-0.1495972-0.6052246-0.2302246   c-0.2467041-0.1015015-0.4810791-0.2092896-0.7173462-0.3162842c-0.1812134-0.0820313-0.3681641-0.161438-0.5430298-0.2460327   c-0.2387695-0.1156006-0.4626465-0.2350464-0.6890869-0.3540039c-0.1555176-0.081665-0.3186035-0.1617432-0.4681396-0.2443848   c-0.2433472-0.1345215-0.4688721-0.2700806-0.6956787-0.4053955c-0.1147461-0.0684814-0.2388306-0.1369019-0.3492432-0.2051392   c-0.3287964-0.2033081-0.6395264-0.4052105-0.9280396-0.6015606c-1.7382813-1.1826172-3.9863281-1.1826172-5.7246094,0   c-0.2885132,0.1963501-0.5992432,0.3982525-0.9280396,0.6015606c-0.1104126,0.0682373-0.2344971,0.1366577-0.3492432,0.2051392   c-0.2268066,0.1353149-0.4523315,0.270874-0.6956787,0.4053955c-0.1495361,0.0826416-0.3126221,0.1627197-0.4681396,0.2443848   c-0.2264404,0.1189575-0.4503174,0.2384033-0.6890869,0.3540039c-0.1748657,0.0845947-0.3618164,0.1640015-0.5430298,0.2460327   c-0.2362671,0.1069946-0.4706421,0.2147827-0.7173462,0.3162842c-0.196106,0.0806274-0.402771,0.1538696-0.6052246,0.2302246   c-0.2479858,0.0935669-0.4949951,0.1876831-0.7521973,0.2736816c-0.2133789,0.0713501-0.4354858,0.133606-0.6549072,0.1989136   c-0.2615967,0.0778809-0.5231323,0.1556396-0.7930298,0.2238159c-0.2280884,0.0576782-0.463501,0.1052246-0.6972656,0.1551514   c-0.2747192,0.0587158-0.5500488,0.1159668-0.8322144,0.1629028c-0.2415771,0.0401611-0.4887695,0.0696411-0.7354736,0.1004028   c-0.1829224,0.0227661-0.3683472,0.0402832-0.5540161,0.0574951c0.0008545-0.1489258,0-0.2973022,0.0070801-0.4487305   c0.0107422-0.2416992-0.125-0.4663086-0.34375-0.5698242c-0.4560547-0.2148438-0.9472656-0.2954102-1.4150391-0.2319336   c-0.6689453,0.0893555-1.2636719,0.4526367-1.71875,1.0507813c-0.6542969,0.8588867-0.9414063,2.1323242-0.7666016,3.4047852   c0.1748047,1.2749023,0.7919922,2.4248047,1.6523438,3.0751953c0.1372681,0.1038208,0.2788086,0.1906738,0.4226074,0.2666016   c0.0528564,0.0280151,0.1069336,0.0481567,0.1605225,0.0723877c0.092041,0.0413818,0.1842041,0.0802612,0.2779541,0.1102905   c0.0636597,0.0204468,0.1276245,0.0358887,0.1919556,0.0510254c0.088623,0.020813,0.1774902,0.0366211,0.2670288,0.0473022   c0.0634155,0.0075073,0.1264038,0.0144653,0.1901855,0.0167236c0.0302124,0.0011597,0.0601196,0.0079346,0.090332,0.0079346   c0.109375,0,0.2197266-0.0078125,0.3300781-0.0234375c0.1171875-0.015625,0.2324219-0.0395508,0.3457031-0.0722656   c0.0140381,0.050354,0.0336914,0.0957642,0.0480347,0.1459351c0.1871338,0.6550903,0.3969727,1.2901001,0.6273804,1.9055786   c0.0383911,0.1026001,0.0775757,0.2036743,0.1170654,0.3051758c0.2371826,0.609314,0.4917603,1.199646,0.7644653,1.7677002   c0.0424805,0.0884399,0.0863037,0.1741333,0.1295166,0.2615967c0.2814941,0.5693359,0.5761719,1.1200562,0.8861694,1.6452637   c0.0397949,0.0673828,0.0808716,0.1312256,0.1210327,0.197876c0.3222656,0.534729,0.6546631,1.0500488,0.9985352,1.5362549   c0.0248413,0.0351563,0.050354,0.0673828,0.0752563,0.1022339c0.3510132,0.4909058,0.710144,0.9576416,1.0748901,1.3966675   c0.0159912,0.0192871,0.0315552,0.0400391,0.0475464,0.0592041c0.3665161,0.4382935,0.737793,0.8450928,1.1096191,1.2293091   c0.0386963,0.039978,0.0769043,0.0822754,0.1156006,0.1216431c0.3581543,0.364563,0.7155151,0.6992798,1.0703735,1.0119629   c0.0511475,0.0450439,0.1019287,0.0915527,0.1528931,0.135498c0.3463745,0.2988281,0.6875,0.569458,1.0228271,0.8169556   c0.0289307,0.0213623,0.0595093,0.0496216,0.0883179,0.0705566c0.0010986,0.0834351,0.00177,0.1696777,0.0027466,0.255127   c0.0020142,0.1762085,0.0039063,0.3528442,0.0043335,0.5366821c0.0007324,0.3374023-0.0011597,0.6848755-0.0103149,1.0441895   c-0.0644531,3.1547852-2.6601563,5.7958984-5.9121094,6.0131836l-9.7089825,0.6586914   c-0.0107422,0-0.0205078,0.0004883-0.03125,0.0009766c-0.2197266,0.0112305-0.4511719,0.0351563-0.6259766,0.0737305   c-0.0214844,0.0029297-0.0419922,0.0058594-0.0634766,0.0087891C29.1968594,62.469696,29.7447109,61.2572937,30.3579922,59.8988953   z M62.2066841,41.2535095c-0.1941528,0.7836304-0.4233398,1.5396118-0.6818848,2.2667236   c-0.4290771,1.2064819-0.9523315,2.3128052-1.515686,3.3551636c-0.2252808,0.416748-0.4552002,0.8199463-0.6959229,1.2092285   c-1.7005005,2.749939-3.7345581,4.8269653-5.5177002,6.0681763c-1.4208984,0.9941406-2.7695313,1.5415039-3.7958984,1.5415039   c-0.2565918,0-0.5333252-0.0342407-0.8262939-0.1010742c-0.5859375-0.133728-1.2368164-0.3980103-1.9216309-0.7803345   c-0.3422241-0.19104-0.6928101-0.4116211-1.0479736-0.6600952c-0.0001221-0.0001221-0.0003052-0.000061-0.0004272-0.0001831   c-0.0001831-0.0001221-0.0003662-0.0001831-0.0005493-0.0003052c-3.046875-2.1210938-6.8564453-6.6240234-8.4238281-12.9545898   c-0.0087891-0.0356445-0.0185547-0.0688477-0.0410156-0.1923828c-0.0546875-0.2021484-0.1005859-0.4130859-0.1464844-0.6665039   c-0.0341797-0.1357422-0.0585938-0.2788086-0.0957031-0.4848633c-0.0371094-0.1669922-0.0654297-0.34375-0.0947266-0.5273438   c-0.0664063-0.40625-0.1152344-0.8120117-0.1552734-1.2416992c-0.0292969-0.2519531-0.0488281-0.5039063-0.0673828-0.7558594   c-0.0149536-0.1951904-0.0267944-0.3928223-0.0355835-0.5916748c-0.0003662-0.0081787-0.0001831-0.0174561-0.0005493-0.0256348   c0.2186279-0.019165,0.4265137-0.0583496,0.6414795-0.0846558c0.2594604-0.0317383,0.5193481-0.0604248,0.7732544-0.1019897   c0.305542-0.0499878,0.6018066-0.1123657,0.8989868-0.1752319c0.2435303-0.0515137,0.4884644-0.0990601,0.7260742-0.1584473   c0.2955933-0.0738525,0.5800781-0.1588135,0.8661499-0.2435303c0.2242432-0.0664063,0.451355-0.1283569,0.6695557-0.2006836   c0.2858887-0.0947876,0.5587158-0.1987915,0.8337402-0.3023682c0.2028809-0.076355,0.4100342-0.1484375,0.6067505-0.2288208   c0.2767944-0.1130981,0.538208-0.2330933,0.8023682-0.3527832c0.1781006-0.0806885,0.3623657-0.1577148,0.5346069-0.2407837   c0.2701416-0.130188,0.522522-0.2644653,0.7775879-0.3986816c0.1488647-0.0783691,0.3056641-0.1544189,0.4492188-0.2336426   c0.2757568-0.1520386,0.5310059-0.3048706,0.7865601-0.4578247c0.1051025-0.0629272,0.2196045-0.1255493,0.321228-0.1882935   c0.3487549-0.2153931,0.6777954-0.4290771,0.9833374-0.6370239c1.3261719-0.9038067,3.0429688-0.9057598,4.3730469,0   c0.305542,0.2079468,0.6345825,0.4216309,0.9833374,0.6370239c0.1016235,0.0627441,0.2161255,0.1253662,0.321228,0.1882935   c0.2555542,0.1529541,0.5108032,0.3057861,0.7865601,0.4578247c0.1431274,0.0789795,0.2993774,0.1548462,0.4478149,0.2329102   c0.2556763,0.1345215,0.508667,0.2692261,0.77948,0.3996582c0.1715698,0.0827026,0.3549805,0.1594238,0.5324097,0.2398071   c0.2647705,0.1199341,0.5267944,0.2401733,0.8041382,0.3535767c0.1967163,0.0803833,0.4038086,0.1524048,0.6066895,0.2287598   c0.2750244,0.1035767,0.5478516,0.2075806,0.8337402,0.3023682c0.2182007,0.0723267,0.4453125,0.1342773,0.6695557,0.2006836   c0.2860718,0.0847168,0.5705566,0.1696777,0.8661499,0.2435303c0.2375488,0.0593872,0.4824219,0.1069336,0.7258911,0.1584473   c0.2973022,0.0629272,0.593689,0.1252441,0.899353,0.1752319c0.2538452,0.0415039,0.5135498,0.0702515,0.7729492,0.1019897   c0.2114868,0.0258789,0.4161377,0.0643311,0.6311646,0.083252c-0.008606,0.2069702-0.0102539,0.4162598-0.0256958,0.6192017   c-0.0185547,0.2514648-0.0380859,0.503418-0.0693359,0.769043c-0.0380859,0.4160156-0.0869141,0.8217773-0.1542969,1.2348633   c-0.0283203,0.1767578-0.0566406,0.3535156-0.1054688,0.5830078c-0.0253906,0.1435547-0.0498047,0.2866211-0.0927734,0.4648438   c-0.0380859,0.2192383-0.0859375,0.4384766-0.1328125,0.6411133l-0.0595703,0.2299805   C62.206562,41.2527771,62.2067451,41.2531433,62.2066841,41.2535095z M46.4595528,56.8197937   c0.0097656-0.3666992,0.0126953-0.7246094,0.0117188-1.0703125c0.0268555,0.015686,0.0523682,0.026062,0.0791626,0.0414429   c0.2821045,0.1619263,0.5606079,0.3092041,0.8336792,0.4360352c0.0393066,0.0182495,0.0775757,0.03302,0.1166992,0.0505371   c0.2513428,0.1126099,0.4978638,0.2095337,0.7397461,0.2914429c0.0429688,0.0145874,0.0866089,0.0315552,0.1292725,0.045166   c0.2574463,0.0819092,0.5078735,0.1437988,0.7523804,0.1895752c0.0523071,0.0098267,0.1035156,0.0172729,0.1551514,0.0253906   c0.2476196,0.0389404,0.4904785,0.0654297,0.722229,0.0654297s0.4746094-0.0264893,0.722229-0.0654297   c0.0516357-0.0081177,0.1028442-0.015564,0.1551514-0.0253906c0.2444458-0.0457764,0.4949341-0.107666,0.7522583-0.1895142   c0.0427856-0.0136108,0.0864868-0.0307007,0.1295166-0.0452881c0.2419434-0.0819702,0.4885864-0.178833,0.7399902-0.2915039   c0.0389404-0.0174561,0.0769653-0.0321655,0.1161499-0.050354c0.2730103-0.1268311,0.5514526-0.2739868,0.833374-0.4358521   c0.0269775-0.0154419,0.0526123-0.0258789,0.0796509-0.041687c-0.0009766,0.3452148,0.0019531,0.7021484,0.0117188,1.0673828   c0.0761719,3.7714844,3.1640625,6.9277344,7.0292969,7.1860352l8.0898476,0.5488281   c-4.838871,2.0361328-11.4863319,3.1826172-18.6591835,3.1826172c-7.171814,0-13.8202515-1.1464844-18.6600933-3.1826172   l8.0897808-0.5488281C43.2954903,63.7445984,46.3833809,60.5883484,46.4595528,56.8197937z M63.4836006,41.0760193   c0.0013428-0.0061646,0.0021362-0.0114136,0.003479-0.0175781c0.0325928-0.1509399,0.0631104-0.2991943,0.0847778-0.4285889   c0.0400391-0.1616211,0.0712891-0.3320313,0.1035156-0.5151367c0.0419922-0.1899414,0.0742188-0.3911133,0.1064453-0.5927734   c0.0722656-0.4335938,0.1230469-0.8676758,0.1630859-1.2983398c0.03125-0.2675781,0.0527344-0.5361328,0.073246-0.8037109   c0.03125-0.4150391,0.0507813-0.840332,0.0498047-1.2197266c0.0117188-0.1542969,0.0117188-0.3208008,0.0117188-0.4755859   c0-0.0957031,0-0.1899414,0-0.2836914c0.1318359-0.0249023,0.2626953-0.0283203,0.390625-0.0117188   c0.4365234,0.0581055,0.7421875,0.3520508,0.9228516,0.5883789c0.1162109,0.15271,0.2158203,0.3259888,0.2977905,0.5151367   c0.1639404,0.3782349,0.2573242,0.8198242,0.2718506,1.286438c0.0072632,0.2332153-0.005188,0.4726563-0.0383911,0.713562   c0,0,0,0,0,0.0004883c-0.1318359,0.965332-0.5751953,1.8178711-1.1865234,2.2802734   c-0.2363281,0.1782227-0.6113281,0.3769531-1.0488319,0.3164063   C63.6167183,41.1201477,63.5504951,41.0976868,63.4836006,41.0760193z M35.9299507,36.1475525   c0.0010376,0.017334,0,0.0355225,0.0012817,0.0526123c0.0001221,0.0012207,0.0008545,0.0020752,0.0009766,0.0032959   c0.0014648,0.4087524,0.0187988,0.8175049,0.0488281,1.2159424c0.0205078,0.2680664,0.0419922,0.5366211,0.0712891,0.7905273   c0.0419922,0.4443359,0.0927734,0.878418,0.1650391,1.3125c0.0322266,0.2011719,0.0644531,0.4023438,0.1083984,0.6040039   c0.0302734,0.1713867,0.0615234,0.3417969,0.0927734,0.4609375c0.0276489,0.1604004,0.0597534,0.3101196,0.0921631,0.444519   c0.0031128,0.0128174,0.0057373,0.0304565,0.0088501,0.0427856c-0.0692749,0.0227051-0.1381226,0.0455322-0.2142944,0.0556641   c-0.4316406,0.0629883-0.8076172-0.1376953-1.0439453-0.3168945c-0.6113281-0.4624023-1.0546875-1.3149414-1.1865234-2.2807617   c-0.1328125-0.9638672,0.0664063-1.9042969,0.53125-2.5151367c0.1806641-0.2363281,0.4863281-0.5302734,0.9248047-0.5883789   c0.1269531-0.0175781,0.2578125-0.012207,0.3886719,0.0117188c0,0.09375,0,0.1879883,0,0.2836914   C35.9195137,35.8767395,35.9197578,36.0391541,35.9299507,36.1475525z M76.6099472,82.714325h-8.7734375v-4.3466797   c0-0.331543-0.2685547-0.6000977-0.5996094-0.6000977s-0.5996094,0.2685547-0.5996094,0.6000977v4.3466797H33.3618965v-4.3466797   c0-0.331543-0.2685547-0.6000977-0.5996094-0.6000977s-0.5996094,0.2685547-0.5996094,0.6000977v4.3466797h-8.7734356   c-0.3847656-3.8251953-0.5566406-9.1098633,0.6113281-13.5688477c0.5292969-2.0415039,2.1835938-3.6669922,4.3369141-4.2480469   c0.184021-0.0570068,0.3918457-0.1004639,0.6263428-0.1392212c5.0809307,2.654541,12.7270489,4.1763306,21.0357647,4.1763306   c8.3029175,0,15.9440346-1.5197754,21.0239296-4.1708374c0.2285156,0.0362549,0.4487305,0.0748901,0.659668,0.1395874   c2.1318359,0.5751953,3.7861328,2.2006836,4.3164063,4.2431641C77.1675644,73.6093445,76.9956894,78.8920593,76.6099472,82.714325z   "/><path d="M38.2486153,32.9081726c0.0341797,0,0.0673828-0.0029297,0.1015625-0.0087891   c5.3310547-0.9101543,9.3388672-3.8535137,9.5068359-3.9785137c0.2666016-0.1972656,0.3212891-0.5727539,0.1240234-0.8388672   c-0.1972656-0.2666016-0.5722656-0.3217773-0.8388672-0.1245117c-0.0390625,0.0288086-3.9560547,2.8989258-8.9931641,3.7592773   c-0.3271484,0.0556641-0.546875,0.3657207-0.4912109,0.6923809C37.7085762,32.7016296,37.9615059,32.9081726,38.2486153,32.9081726   z"/></g><text x="0" y="115" fill="#000000" font-size="5px" font-weight="bold" font-family="'Helvetica Neue', Helvetica, Arial-Unicode, Arial, Sans-serif">Created by Edwin Prayogi M</text><text x="0" y="120" fill="#000000" font-size="5px" font-weight="bold" font-family="'Helvetica Neue', Helvetica, Arial-Unicode, Arial, Sans-serif">from the Noun Project</text></svg>