<?xml version="1.0" encoding="utf-8"?>
<svg xmlns="http://www.w3.org/2000/svg"
	xmlns:xlink="http://www.w3.org/1999/xlink"
	width="21px" height="20px" viewBox="0 0 21 20">
<path fillRule="evenodd" d="M 10.96 14C 13.17 14 14.96 12.2 14.96 10 14.96 7.79 13.17 6 10.96 6 8.75 6 6.96 7.79 6.96 10 6.96 12.2 8.75 14 10.96 14M 10.96 20C 5.44 20 0.96 15.52 0.96 10 0.96 4.48 5.44-0 10.96-0 16.48-0 20.96 4.48 20.96 10 20.96 15.52 16.48 20 10.96 20 10.96 20 10.96 20 10.96 20Z" fill="rgb(53,219,169)"/></svg>