<?xml version="1.0" encoding="utf-8"?>
<svg xmlns="http://www.w3.org/2000/svg"
	xmlns:xlink="http://www.w3.org/1999/xlink"
	width="124px" height="82px" viewBox="0 0 124 82">
<path fillRule="evenodd" d="M 107.88 3.25C 107.88 3.25 104.8 13.13 104.8 13.13 104.8 13.13 104.56 14.63 104.56 14.63 104.56 14.63 93.26 11.94 93.26 11.94 93.26 11.94 90.19 21.82 90.19 21.82 90.19 21.82 89.95 23.32 89.95 23.32 89.95 23.32 78.65 20.63 78.65 20.63 78.65 20.63 75.58 30.51 75.58 30.51 75.58 30.51 75.34 32 75.34 32 75.34 32 64.04 29.32 64.04 29.32 64.04 29.32 60.96 39.2 60.96 39.2 60.96 39.2 60.72 40.69 60.72 40.69 60.72 40.69 49.43 38 49.43 38 49.43 38 46.35 47.89 46.35 47.89 46.35 47.89 46.11 49.38 46.11 49.38 46.11 49.38 34.81 46.69 34.81 46.69 34.81 46.69 31.74 56.57 31.74 56.57 31.74 56.57 31.5 58.07 31.5 58.07 31.5 58.07 20.2 55.38 20.2 55.38 20.2 55.38 17.13 65.26 17.13 65.26 17.13 65.26 16.89 66.75 16.89 66.75 16.89 66.75 5.59 64.07 5.59 64.07 5.59 64.07 2.11 75.25 2.11 75.25 2.11 75.25 0.2 74.65 0.2 74.65 0.2 74.65 3.79 63.11 3.79 63.11 3.79 63.11 4.03 61.61 4.03 61.61 4.03 61.61 15.33 64.3 15.33 64.3 15.33 64.3 18.4 54.42 18.4 54.42 18.4 54.42 18.65 52.93 18.65 52.93 18.65 52.93 29.94 55.62 29.94 55.62 29.94 55.62 33.02 45.73 33.02 45.73 33.02 45.73 33.26 44.24 33.26 44.24 33.26 44.24 44.56 46.93 44.56 46.93 44.56 46.93 47.63 37.04 47.63 37.04 47.63 37.04 47.87 35.55 47.87 35.55 47.87 35.55 59.17 38.24 59.17 38.24 59.17 38.24 62.24 28.36 62.24 28.36 62.24 28.36 62.48 26.86 62.48 26.86 62.48 26.86 73.78 29.55 73.78 29.55 73.78 29.55 76.86 19.67 76.86 19.67 76.86 19.67 77.1 18.18 77.1 18.18 77.1 18.18 88.39 20.87 88.39 20.87 88.39 20.87 91.47 10.98 91.47 10.98 91.47 10.98 91.71 9.49 91.71 9.49 91.71 9.49 103.01 12.18 103.01 12.18 103.01 12.18 106.08 2.29 106.08 2.29 106.08 2.29 106.32 0.8 106.32 0.8 106.32 0.8 119.5 3.94 119.5 3.94 119.5 3.94 119.17 5.94 119.17 5.94 119.17 5.94 107.88 3.25 107.88 3.25ZM 7.61 67.63C 7.61 67.63 18.91 70.32 18.91 70.32 18.91 70.32 21.98 60.44 21.98 60.44 21.98 60.44 22.22 58.94 22.22 58.94 22.22 58.94 33.52 61.63 33.52 61.63 33.52 61.63 36.59 51.75 36.59 51.75 36.59 51.75 36.83 50.26 36.83 50.26 36.83 50.26 48.13 52.94 48.13 52.94 48.13 52.94 51.21 43.06 51.21 43.06 51.21 43.06 51.45 41.57 51.45 41.57 51.45 41.57 62.75 44.26 62.75 44.26 62.75 44.26 65.82 34.37 65.82 34.37 65.82 34.37 66.06 32.88 66.06 32.88 66.06 32.88 77.36 35.57 77.36 35.57 77.36 35.57 80.43 25.69 80.43 25.69 80.43 25.69 80.67 24.19 80.67 24.19 80.67 24.19 91.97 26.88 91.97 26.88 91.97 26.88 95.04 17 95.04 17 95.04 17 95.29 15.51 95.29 15.51 95.29 15.51 106.58 18.19 106.58 18.19 106.58 18.19 109.66 8.31 109.66 8.31 109.66 8.31 109.9 6.82 109.9 6.82 109.9 6.82 123.07 9.95 123.07 9.95 123.07 9.95 122.75 11.96 122.75 11.96 122.75 11.96 111.45 9.27 111.45 9.27 111.45 9.27 108.38 19.15 108.38 19.15 108.38 19.15 108.14 20.65 108.14 20.65 108.14 20.65 96.84 17.96 96.84 17.96 96.84 17.96 93.77 27.84 93.77 27.84 93.77 27.84 93.53 29.33 93.53 29.33 93.53 29.33 82.23 26.64 82.23 26.64 82.23 26.64 79.15 36.53 79.15 36.53 79.15 36.53 78.91 38.02 78.91 38.02 78.91 38.02 67.62 35.33 67.62 35.33 67.62 35.33 64.54 45.22 64.54 45.22 64.54 45.22 64.3 46.71 64.3 46.71 64.3 46.71 53 44.02 53 44.02 53 44.02 49.93 53.9 49.93 53.9 49.93 53.9 49.69 55.4 49.69 55.4 49.69 55.4 38.39 52.71 38.39 52.71 38.39 52.71 35.32 62.59 35.32 62.59 35.32 62.59 35.08 64.08 35.08 64.08 35.08 64.08 23.78 61.4 23.78 61.4 23.78 61.4 20.7 71.28 20.7 71.28 20.7 71.28 20.46 72.77 20.46 72.77 20.46 72.77 9.17 70.08 9.17 70.08 9.17 70.08 5.69 81.27 5.69 81.27 5.69 81.27 3.78 80.67 3.78 80.67 3.78 80.67 7.37 69.13 7.37 69.13 7.37 69.13 7.61 67.63 7.61 67.63Z" fill="rgb(53,219,169)"/></svg>