<?xml version="1.0" encoding="utf-8"?>
<svg xmlns="http://www.w3.org/2000/svg"
	xmlns:xlink="http://www.w3.org/1999/xlink"
	width="30px" height="21px" viewBox="0 0 30 21">
<path fillRule="evenodd" d="M 29.52 11.4C 29.52 11.4 25.35 14.16 25.35 14.16 25.17 14.28 24.97 14.33 24.77 14.33 24.42 14.33 24.07 14.16 23.87 13.85 23.54 13.35 23.68 12.68 24.18 12.35 24.18 12.35 26.98 10.5 26.98 10.5 26.98 10.5 19.98 5.89 19.98 5.89 19.49 5.56 19.35 4.89 19.68 4.39 20 3.89 20.67 3.76 21.16 4.08 21.16 4.08 29.52 9.6 29.52 9.6 29.82 9.8 30.01 10.14 30.01 10.5 30.01 10.87 29.82 11.21 29.52 11.4ZM 13.46 20.21C 13.33 20.68 12.9 21 12.43 21 12.33 21 12.24 20.99 12.14 20.96 11.57 20.8 11.23 20.21 11.39 19.64 11.39 19.64 16.54 0.8 16.54 0.8 16.7 0.23 17.29-0.11 17.86 0.05 18.43 0.2 18.77 0.8 18.61 1.37 18.61 1.37 13.46 20.21 13.46 20.21ZM 3.02 10.5C 3.02 10.5 10.02 15.12 10.02 15.12 10.51 15.45 10.65 16.12 10.32 16.61 10.12 16.93 9.78 17.1 9.43 17.1 9.22 17.1 9.02 17.04 8.84 16.92 8.84 16.92 0.48 11.4 0.48 11.4 0.18 11.21-0.01 10.87-0.01 10.5-0.01 10.14 0.18 9.8 0.48 9.6 0.48 9.6 8.84 4.08 8.84 4.08 9.33 3.76 10 3.89 10.32 4.39 10.65 4.89 10.51 5.56 10.02 5.89 10.02 5.89 3.02 10.5 3.02 10.5ZM 21.66 14.02C 22.15 13.69 22.82 13.83 23.14 14.33 23.47 14.82 23.33 15.49 22.83 15.82 22.83 15.82 21.16 16.92 21.16 16.92 20.98 17.04 20.78 17.1 20.57 17.1 20.22 17.1 19.88 16.93 19.68 16.61 19.35 16.12 19.49 15.45 19.98 15.12 19.98 15.12 21.66 14.02 21.66 14.02Z" fill="rgb(53,219,169)"/></svg>