<?xml version="1.0" encoding="utf-8"?>
<svg xmlns="http://www.w3.org/2000/svg"
	xmlns:xlink="http://www.w3.org/1999/xlink"
	width="72px" height="60px" viewBox="0 0 72 60">
<path fillRule="evenodd" d="M 27.37 4.05C 17.78 7.78 11.37 17.22 11.37 27.54 11.37 27.54 11.37 34.42 11.37 34.42 11.37 35.36 10.54 36.14 9.6 36.14 9.6 36.14 6.06 36.14 6.06 36.14 3.18 36.14 0.81 33.76 0.81 30.87 0.81 30.87 0.81 23.1 0.81 23.1 0.81 20.81 2.28 18.81 4.46 18.1 5.35 17.81 6.31 18.31 6.6 19.2 6.89 20.1 6.39 21.06 5.5 21.34 4.74 21.59 4.21 22.31 4.21 23.1 4.21 23.1 4.21 30.87 4.21 30.87 4.21 31.88 5.05 32.74 6.06 32.74 6.06 32.74 7.98 32.74 7.98 32.74 7.98 32.74 7.98 27.54 7.98 27.54 7.98 21.66 9.71 16.01 13.05 11.21 16.31 6.51 20.8 2.94 26.1 0.88 26.98 0.54 27.96 0.97 28.3 1.85 28.64 2.73 28.24 3.71 27.37 4.05ZM 62.92 17.05C 62.91 17.05 62.91 17.06 62.91 17.06 64.23 20.39 64.89 23.92 64.89 27.56 64.89 29.31 64.74 31.03 64.44 32.74 64.44 32.74 66.73 32.74 66.73 32.74 67.75 32.74 68.5 31.88 68.5 30.87 68.5 30.87 68.5 23.1 68.5 23.1 68.5 22.31 68 21.59 67.24 21.34 66.35 21.06 65.89 20.1 66.18 19.2 66.46 18.31 67.4 17.81 68.29 18.1 70.47 18.81 71.89 20.81 71.89 23.1 71.89 23.1 71.89 30.87 71.89 30.87 71.89 33.76 69.62 36.14 66.73 36.14 66.73 36.14 63.6 36.14 63.6 36.14 62.57 39.36 60.94 42.53 58.74 45.32 55.12 49.89 50.15 53.27 44.62 54.95 44.37 57.75 42.02 59.98 39.17 59.98 39.17 59.98 33.63 59.98 33.63 59.98 30.61 59.98 28.16 57.52 28.16 54.49 28.16 51.46 30.61 49.01 33.63 49.01 33.63 49.01 39.17 49.01 39.17 49.01 41.15 49.01 42.9 50.04 43.86 51.63 54.32 48.39 61.5 38.66 61.5 27.54 61.5 24.12 60.71 19.71 59.5 17.68M 41.25 54.47C 41.25 54.33 41.24 54.17 41.21 54.04 41.21 54.02 41.2 54.02 41.2 54 40.99 53.07 40.16 52.41 39.17 52.41 39.17 52.41 33.63 52.41 33.63 52.41 32.48 52.41 31.55 53.34 31.55 54.49 31.55 55.65 32.48 56.57 33.63 56.57 33.63 56.57 39.17 56.57 39.17 56.57 40.32 56.57 41.25 55.62 41.25 54.47Z" fill="rgb(23,29,129)"/></svg>