<?xml version="1.0" encoding="utf-8"?>
<svg xmlns="http://www.w3.org/2000/svg"
	xmlns:xlink="http://www.w3.org/1999/xlink"
	width="37px" height="39px" viewBox="0 0 37 39">
<path fillRule="evenodd" d="M 24.94 19.02C 24.94 22.59 22.04 25.5 18.48 25.5 14.92 25.5 12.02 22.59 12.02 19.02 12.02 15.45 14.92 12.54 18.48 12.54 22.04 12.54 24.94 15.45 24.94 19.02ZM 21.54 19.02C 21.54 17.33 20.17 15.95 18.48 15.95 16.79 15.95 15.42 17.33 15.42 19.02 15.42 20.72 16.79 22.09 18.48 22.09 20.17 22.09 21.54 20.72 21.54 19.02ZM 29.5 31.68C 29.5 31.68 27.27 30.68 27.27 30.68 26.31 31.41 25.27 32.01 24.16 32.48 24.16 32.48 23.88 35.17 23.88 35.17 23.79 36.94 21.74 38.04 18.48 38.04 15.21 38.04 13.16 36.94 13.08 35.16 13.08 35.16 12.8 32.48 12.8 32.48 11.69 32.01 10.65 31.41 9.69 30.68 9.69 30.68 7.22 31.78 7.22 31.78 5.65 32.59 3.68 31.35 2.05 28.52 1.46 27.5 1.04 26.44 0.87 25.53 0.5 23.62 1.27 22.76 1.83 22.39 1.83 22.39 4.02 20.8 4.02 20.8 3.95 20.21 3.91 19.61 3.91 19.02 3.91 18.41 3.95 17.81 4.02 17.21 4.02 17.21 1.83 15.62 1.83 15.62 0.34 14.66 0.42 12.32 2.05 9.49 3.68 6.66 5.65 5.42 7.22 6.22 7.22 6.22 9.72 7.34 9.72 7.34 10.67 6.62 11.7 6.02 12.8 5.56 12.8 5.56 13.08 2.84 13.08 2.84 13.16 1.07 15.21-0.03 18.48-0.03 21.74-0.03 23.79 1.06 23.88 2.84 23.88 2.84 24.16 5.56 24.16 5.56 25.26 6.02 26.29 6.62 27.24 7.34 27.24 7.34 29.73 6.23 29.73 6.23 30.33 5.92 31.46 5.69 32.92 6.96 33.61 7.57 34.32 8.47 34.91 9.49 36.54 12.32 36.62 14.65 35.14 15.61 35.14 15.61 32.94 17.21 32.94 17.21 33.01 17.81 33.05 18.42 33.05 19.02 33.05 19.61 33.01 20.21 32.94 20.8 32.94 20.8 35.14 22.4 35.14 22.4 36.62 23.36 36.54 25.7 34.91 28.52 34.32 29.54 33.61 30.44 32.92 31.05 32.91 31.05 32.91 31.06 32.91 31.06M 30.1 15.07C 30.1 15.07 32.76 13.13 32.76 13.13 32.68 12.74 32.46 12.04 31.97 11.19 31.48 10.34 30.99 9.8 30.69 9.53 30.69 9.53 27.67 10.88 27.67 10.88 27.07 11.15 26.36 11.04 25.86 10.6 24.74 9.61 23.45 8.86 22.04 8.39 21.41 8.18 20.96 7.61 20.9 6.95 20.9 6.95 20.55 3.66 20.55 3.66 20.17 3.53 19.46 3.37 18.48 3.37 17.5 3.37 16.79 3.53 16.4 3.66 16.4 3.66 16.06 6.95 16.06 6.95 16 7.61 15.55 8.18 14.92 8.39 13.51 8.86 12.22 9.61 11.1 10.6 10.6 11.04 9.89 11.15 9.29 10.88 9.29 10.88 6.27 9.53 6.27 9.53 5.97 9.79 5.48 10.34 4.99 11.19 4.5 12.04 4.27 12.74 4.2 13.13 4.2 13.13 6.86 15.07 6.86 15.07 7.4 15.46 7.66 16.13 7.53 16.79 7.38 17.52 7.31 18.27 7.31 19.02 7.31 19.76 7.38 20.51 7.52 21.23 7.65 21.88 7.39 22.55 6.85 22.94 6.85 22.94 4.2 24.87 4.2 24.87 4.27 25.27 4.5 25.97 4.99 26.82 5.48 27.67 5.97 28.21 6.27 28.48 6.27 28.48 9.26 27.14 9.26 27.14 9.87 26.87 10.58 26.98 11.08 27.42 12.21 28.42 13.5 29.17 14.92 29.65 15.55 29.86 16 30.43 16.07 31.09 16.07 31.09 16.4 34.35 16.4 34.35 16.79 34.48 17.5 34.63 18.48 34.63 19.46 34.63 20.17 34.48 20.56 34.35 20.56 34.35 20.89 31.09 20.89 31.09 20.96 30.43 21.41 29.86 22.04 29.65 23.46 29.17 24.75 28.42 25.88 27.42 26.38 26.98 27.09 26.87 27.7 27.14 27.7 27.14 30.69 28.48 30.69 28.48 30.99 28.21 31.48 27.67 31.97 26.82 32.46 25.97 32.68 25.27 32.76 24.87 32.76 24.87 30.11 22.94 30.11 22.94 29.57 22.55 29.31 21.88 29.44 21.23 29.58 20.51 29.65 19.76 29.65 19.02 29.65 18.27 29.58 17.52 29.43 16.79 29.3 16.13 29.56 15.46 30.1 15.07Z" fill="rgb(53,219,169)"/></svg>