<?xml version="1.0" encoding="utf-8"?>
<svg xmlns="http://www.w3.org/2000/svg"
	xmlns:xlink="http://www.w3.org/1999/xlink"
	width="28px" height="47px" viewBox="0 0 28 47">
<path fillRule="evenodd" d="M 24.13 45.54C 24.13 45.54 24.13 39.21 24.13 39.21 24.13 38.83 23.98 38.46 23.71 38.18 23.45 37.91 23.09 37.76 22.71 37.76 22.71 37.76 21.9 37.76 21.9 37.76 21.9 37.76 21.9 31.91 21.9 31.91 21.9 31.91 27.47 26.2 27.47 26.2 27.91 25.75 28.01 25.06 27.73 24.5 27.73 24.5 15.62 0.77 15.62 0.77 15.38 0.29 14.89-0.02 14.36-0.02 13.83-0.02 13.35 0.29 13.1 0.77 13.1 0.77 1.01 24.49 1.01 24.49 0.72 25.05 0.83 25.74 1.27 26.19 1.27 26.19 6.84 31.91 6.84 31.91 6.84 31.91 6.85 37.75 6.85 37.75 6.85 37.75 6.04 37.75 6.04 37.75 5.66 37.75 5.3 37.91 5.03 38.18 4.76 38.45 4.61 38.82 4.62 39.21 4.62 39.21 4.62 45.54 4.62 45.54 4.62 45.94 4.78 46.3 5.03 46.57 5.29 46.83 5.65 46.99 6.04 46.99 6.04 46.99 22.71 47 22.71 47 23.5 47 24.13 46.35 24.13 45.54ZM 9.27 30.28C 9.27 30.28 4.01 24.89 4.01 24.89 4.01 24.89 12.94 7.37 12.94 7.37 12.94 7.37 12.95 19.29 12.95 19.29 12.24 19.52 11.59 19.92 11.05 20.48 10.16 21.38 9.68 22.59 9.68 23.88 9.68 25.2 10.2 26.4 11.05 27.27 11.9 28.15 13.08 28.69 14.37 28.69 16.96 28.69 19.06 26.53 19.06 23.88 19.06 21.73 17.68 19.91 15.79 19.3 15.79 19.3 15.78 7.37 15.78 7.37 15.78 7.37 24.73 24.9 24.73 24.9 24.73 24.9 19.47 30.28 19.47 30.28 19.21 30.55 19.06 30.92 19.06 31.31 19.06 31.31 19.06 37.76 19.06 37.76 19.06 37.76 9.69 37.75 9.69 37.75 9.69 37.75 9.69 31.31 9.69 31.31 9.68 30.92 9.53 30.55 9.27 30.28ZM 15.68 22.54C 16.01 22.88 16.22 23.36 16.22 23.88 16.22 24.92 15.39 25.77 14.37 25.77 13.35 25.77 12.52 24.92 12.52 23.88 12.52 22.83 13.35 21.98 14.37 21.98 14.88 21.98 15.34 22.19 15.68 22.54ZM 7.46 44.08C 7.46 44.08 7.46 40.66 7.46 40.66 7.46 40.66 21.29 40.67 21.29 40.67 21.29 40.67 21.29 44.08 21.29 44.08 21.29 44.08 7.46 44.08 7.46 44.08Z" fill="rgb(23,29,129)"/></svg>