<?xml version="1.0" encoding="utf-8"?>
<svg xmlns="http://www.w3.org/2000/svg"
	xmlns:xlink="http://www.w3.org/1999/xlink"
	width="9px" height="8px" viewBox="0 0 9 8">
<path fillRule="evenodd" d="M 8.84 2.83C 8.84 2.83 6.24 4.33 6.24 4.33 6.24 4.33 7.74 6.93 7.74 6.93 7.74 6.93 6 7.93 6 7.93 6 7.93 4.5 5.33 4.5 5.33 4.5 5.33 1.9 6.83 1.9 6.83 1.9 6.83 0.9 5.1 0.9 5.1 0.9 5.1 3.5 3.6 3.5 3.6 3.5 3.6 2 1 2 1 2 1 3.73 0 3.73 0 3.73 0 5.24 2.6 5.24 2.6 5.24 2.6 7.84 1.1 7.84 1.1 7.84 1.1 8.84 2.83 8.84 2.83Z" fill="rgb(53,219,169)"/></svg>